inDegrees=no
num_controls=7
num_derivatives=13
num_iterations=107
num_multipliers=7
num_parameters=0
num_slacks=7
num_states=26
objective=0.490625
objective_accelerations=0.055925
objective_balance=0.003936
objective_effort=0.048249
objective_height=0.376820
objective_ligament=0.005695
solver_duration=1230.738689
status=Solve_Succeeded
success=true
DataType=double
version=3
OpenSimVersion=4.5
endheader
time	/jointset/ground_pelvis/pelvis_tilt/value	/jointset/ground_pelvis/pelvis_tx/value	/jointset/ground_pelvis/pelvis_ty/value	/jointset/hip_r/hip_flexion_r/value	/jointset/hip_r/hip_adduction_r/value	/jointset/hip_r/hip_rotation_r/value	/jointset/back/lumbar_extension/value	/jointset/patellofemoral_r/patellar_flexion_r/value	/jointset/knee_r/knee_flexion_r/value	/jointset/knee_r/knee_adduction_r/value	/jointset/knee_r/knee_rotation_r/value	/jointset/ankle_r/ankle_angle_r/value	/jointset/subtalar_r/subtalar_angle_r/value	/jointset/ground_pelvis/pelvis_tilt/speed	/jointset/ground_pelvis/pelvis_tx/speed	/jointset/ground_pelvis/pelvis_ty/speed	/jointset/hip_r/hip_flexion_r/speed	/jointset/hip_r/hip_adduction_r/speed	/jointset/hip_r/hip_rotation_r/speed	/jointset/back/lumbar_extension/speed	/jointset/patellofemoral_r/patellar_flexion_r/speed	/jointset/knee_r/knee_flexion_r/speed	/jointset/knee_r/knee_adduction_r/speed	/jointset/knee_r/knee_rotation_r/speed	/jointset/ankle_r/ankle_angle_r/speed	/jointset/subtalar_r/subtalar_angle_r/speed	/forceset/tau_hip_flexion_r	/forceset/tau_hip_adduction_r	/forceset/tau_hip_rotation_r	/forceset/tau_knee_flexion_r	/forceset/tau_ankle_angle_r	/forceset/tau_subtalar_angle_r	/forceset/tau_lumbar_extension	lambda_cid13_p0	lambda_cid14_p0	lambda_cid14_p1	lambda_cid14_p2	lambda_cid14_p3	lambda_cid14_p4	lambda_cid14_p5	/jointset/ground_pelvis/pelvis_tilt/accel	/jointset/ground_pelvis/pelvis_tx/accel	/jointset/ground_pelvis/pelvis_ty/accel	/jointset/hip_r/hip_flexion_r/accel	/jointset/hip_r/hip_adduction_r/accel	/jointset/hip_r/hip_rotation_r/accel	/jointset/back/lumbar_extension/accel	/jointset/patellofemoral_r/patellar_flexion_r/accel	/jointset/knee_r/knee_flexion_r/accel	/jointset/knee_r/knee_adduction_r/accel	/jointset/knee_r/knee_rotation_r/accel	/jointset/ankle_r/ankle_angle_r/accel	/jointset/subtalar_r/subtalar_angle_r/accel	gamma_cid13_p0	gamma_cid14_p0	gamma_cid14_p1	gamma_cid14_p2	gamma_cid14_p3	gamma_cid14_p4	gamma_cid14_p5
0.5	-0.2035807817753735	0.005983527867255737	0.7990182767944327	1.012135616968239	-0.2468048800315601	-0.06253390019080587	-0.3413199803822017	0.9186164892741869	0.9186164892744842	0.06134127207416575	0.1743904813453369	0.283741932646945	0.03841926340440246	-0.525131890302354	-0.1721807149764671	-0.5919139783521021	2.269404139988055	-0.01754188196935512	0.4778737158347736	-0.5854098774075309	2.264968483884132	2.264968483884093	-0.1732030587760518	-0.00157572733139391	0.6214843636403589	0.1362271193385882	-0.145834201650382	-0.01775156315980584	0.01764712333613139	-0.3703284205929187	0.08926478436066351	-0.009775414665872182	0.1830271546165387	-17.73965870204228	-12.67616547434852	-3.47123203935588	-2.40618821305414	-1.17550911163786	-656.8962234087981	57.8064488687473	0.4429044264512179	0.5910919265969025	-0.5579141019120991	-1.366330096520846	0.1909878045665167	-0.3221767187577934	1.812011284959011	-1.684023952614559	-1.684023952614558	0.5601868295831746	-0.03893241777590967	-0.8611592190512297	0.1254349963176256	-1.831476976900416e-07	-1.454564003983027e-07	1.651300889315821e-06	-9.014566270292117e-07	-9.159755710319236e-08	-2.832789611016148e-07	9.953910933518698e-07
0.51	-0.2088087783064191	0.004291450509295627	0.793072671762386	1.034757664982547	-0.2469715373245314	-0.0577721323085694	-0.3470833523980866	0.9411786177892119	0.9411786177893553	0.05963831942843622	0.1743743704420815	0.2899124353037247	0.03978645439451298	-0.5203923518204946	-0.1662211598176233	-0.5970677033683321	2.254706925116622	-0.01578816156303229	0.4744417590437893	-0.5672072329777318	2.247146340911209	2.247146340911092	-0.1674051026846846	-0.001637690743658572	0.6125219628632458	0.1371927424917875	-0.1532847201067307	-0.015917696091367	0.01807842035250651	-0.3749694730881613	0.086414641428089	-0.009152867902521853	0.189616735886444	-16.25801811704584	-13.8994617028761	-3.578315767773615	-2.202627517109232	-0.6685156349473976	-662.887016226324	57.74810153848584	0.5007239530585434	0.6004094231333986	-0.4732574915959152	-1.566216345869533	0.1677566485136598	-0.3596726410978098	1.832984940660059	-1.877905915677372	-1.877905915689158	0.587169607927993	0.01134238093534598	-0.9279514882188088	0.07952129211257236	-1.699040784014729e-07	-1.354268091682637e-07	1.517166913072857e-06	-8.436840938406292e-07	-8.547501640020673e-08	-2.602887403743417e-07	9.075864116239344e-07
0.52	-0.2139871303738431	0.002659373125445251	0.7870796983221535	1.05722378101546	-0.2471206189154705	-0.05304587749060809	-0.3526629791859395	0.9635532055852977	0.9635532055852856	0.05799286026541992	0.174357874041483	0.2959904797564979	0.04116278067961378	-0.5152029975784357	-0.1601807201545201	-0.6013876599892609	2.238217743708591	-0.01402674156276829	0.4707711029796419	-0.5486608318011543	2.227460340096435	2.227460340096239	-0.1617043622327369	-0.00165282680044046	0.6029927228390349	0.1380541783366464	-0.1607352385630824	-0.01408382902292954	0.01850971736890877	-0.3796105255834051	0.0835644984955133	-0.008530321139174271	0.1962063171563466	-14.78870616291379	-15.12515455137286	-3.683516943481298	-2.001996944194044	-0.1741067942946429	-668.9174482997863	57.75144910870379	0.5328675784910646	0.607268827448831	-0.3911604228518323	-1.72472340384048	0.1925277233547412	-0.3699165733904274	1.880762634314656	-2.056795520984856	-2.056795520984879	0.5407437016992873	-0.02956694667932953	-0.9745270684707003	0.1045975346495357	-1.567249285001445e-07	-1.236777224623935e-07	1.395748402048289e-06	-7.777780468954592e-07	-8.232099218488249e-08	-2.356829889637232e-07	8.283520223294038e-07
0.53	-0.2191114271262465	0.001088036819600783	0.781047714913883	1.07951628362674	-0.2472520134379771	-0.04835730540342147	-0.3580555436996565	0.9857218762256967	0.9857218762256067	0.05640389731357933	0.174341272192107	0.3019705518575048	0.0425472544112464	-0.5095839062390242	-0.1540789539195903	-0.6048665915404268	2.219994336839413	-0.01225644099077655	0.4669179511490668	-0.5298122353969684	2.205982412998801	2.205982412998468	-0.1560915720207391	-0.001660973663899298	0.5929385776560767	0.1388155147611876	-0.168048556665179	-0.01240426274389387	0.01892787549195328	-0.3843789329084207	0.08082317446478975	-0.00800335409512541	0.2026435090209933	-13.33412784620218	-16.32446377609354	-3.833411436784981	-1.785328270362536	0.3436486441529096	-674.982417204467	57.70955303947006	0.587284164849713	0.6127524529936068	-0.3049395543246815	-1.914431769925627	0.1686165574776307	-0.3970344143290662	1.892883475174834	-2.236967591349154	-2.236967591369581	0.5712289096314229	0.01442739297062627	-1.033360612099093	0.05826637012330801	-1.190522666822072e-07	-6.572387082224823e-08	1.444136033657565e-06	-3.956455912848053e-07	-1.297457241940323e-07	-1.849063381395604e-07	8.774617806411231e-07
0.54	-0.2241773621146173	-0.0004220574375984444	0.7749852061834859	1.101617895681035	-0.2473658378880931	-0.04370806881982755	-0.3632584271829906	1.00766703233768	1.00766703233751	0.05487099870959268	0.174324762063928	0.3078475820329041	0.04393861444187781	-0.5035306447722813	-0.1479323104254723	-0.6074927244146224	2.20003963231147	-0.01051272708453438	0.4629040022609706	-0.5107246257246209	2.182757434413312	2.182757434412844	-0.150491492661485	-0.001634482561367691	0.5823843377174904	0.1394314381364051	-0.1753618747672779	-0.01072469646485799	0.01934603361501879	-0.3891473402334374	0.07808185043406543	-0.007476387051077317	0.2090807008856377	-11.89600603212986	-17.52665772887611	-3.98216489049923	-1.570722019920539	0.8494982101577367	-681.0937357627619	57.72358764265631	0.6197016039573111	0.6162442792865195	-0.2206006874578346	-2.07098293559338	0.1872103902048178	-0.4020759848946788	1.928565287946914	-2.406205818555455	-2.406205818555511	0.5382015311505872	-0.02263935348121832	-1.074546019596264	0.07551492478479925	-5.428040019057463e-08	4.335014627709563e-08	1.680394291159607e-06	3.363543802961755e-07	-2.331299311749413e-07	-1.051746496663693e-07	1.068569319283163e-06
0.55	-0.2291807730065323	-0.001870558634374564	0.7689006978092424	1.123511692919838	-0.2474619887498682	-0.03910133621810321	-0.3682693378935203	1.02937146975984	1.029371469759797	0.05339202420535306	0.1743090531407494	0.3136167726035651	0.04533598302970937	-0.4970880912892893	-0.1417687375768586	-0.6092652777293918	2.178449580640037	-0.008719732239609465	0.4584310075447117	-0.491436459149408	2.157853390122637	2.157853390122434	-0.1453056180117234	-0.001521772093809198	0.5713779403265167	0.1400206281289462	-0.1824697878274346	-0.009140928138022652	0.01973959011232498	-0.3939684057032732	0.07535573618438979	-0.007029483477366192	0.2152870350116056	-10.47540307917866	-18.72785629971027	-4.173377289209331	-1.340367341654479	1.426604190346098	-687.1447173200014	57.69377268527288	0.6660560510599305	0.6162345864395841	-0.134044084695913	-2.243542251033336	0.1752136387432502	-0.4717124981777274	1.932100927013084	-2.573998928701156	-2.573998928661195	0.5086967208913886	0.02624768406810414	-1.125111245482372	0.04774467028608023	-1.6059006025173e-08	1.199999261030828e-07	2.078629921215596e-06	8.897697285242272e-07	-3.322286414364629e-07	-6.299779223134662e-08	1.38108661056689e-06
0.5600000000000001	-0.234117853597498	-0.00325745994290617	0.7628027716156093	1.145181484448305	-0.2475402357417741	-0.03453969382017635	-0.3730867352213568	1.050818567700218	1.050818567700305	0.05196489170540969	0.1742940756096854	0.3192736142709896	0.0467386682442258	-0.4902645845827159	-0.1356123327765693	-0.6101762882925398	2.155238490244001	-0.006931953110408022	0.4538859615010041	-0.4720219491860193	2.131289538056857	2.131289538056921	-0.1401230918018644	-0.001488204138502887	0.5599145570701654	0.1404947634733805	-0.1895777008875915	-0.007557159811182503	0.02013314660961054	-0.3987894711731088	0.07262962193471537	-0.006582579903646811	0.2214933691375722	-9.072785746094953	-19.93344046841776	-4.365507767368128	-1.109693309960926	2.00175662647107	-693.2607487928003	57.69124601568922	0.6958922486735275	0.6148106696216886	-0.0482921371335599	-2.395190680514089	0.1861672470601124	-0.4164862503844141	1.953833965582066	-2.738167373576394	-2.738167373576414	0.5375318431700776	-0.03846785593163551	-1.16594319267174	0.05250399516345118	-9.698178651247422e-09	1.57740621201043e-07	2.671238398336317e-06	1.228883528728771e-06	-4.2618475563472e-07	-6.588673204212442e-08	1.839295605020637e-06
0.5700000000000001	-0.2389847947191734	-0.004582867208233176	0.7567001100655794	1.166610941579691	-0.2476008483414218	-0.03002579787202908	-0.3777095722460713	1.071991719721279	1.071991719721374	0.05058832434930031	0.1742804357577576	0.3248135572012312	0.04814522072974529	-0.4830683597613955	-0.1294723604318933	-0.6102089182250326	2.130385813803171	-0.005191980436667945	0.4488490355277958	-0.4525328039758689	2.103071573297825	2.103071573297934	-0.1352251120864347	-0.001245531166944851	0.5480117388905213	0.1407975001460965	-0.1964498798888387	-0.006100419671490801	0.02041301793715901	-0.4038906172472241	0.0702630927557041	-0.006222883168635784	0.2274878656282504	-7.73067786533514	-21.03134450145518	-4.580376260316108	-0.8711492114431568	2.512925043404874	-699.4236972371915	57.6645327245036	0.7397950807846263	0.6130086292156026	0.04130359779642218	-2.570355474596482	0.1680671018898815	-0.5540268542070743	1.948352565803699	-2.904003735703784	-2.904003735696943	0.4611162637078225	0.05514031434683468	-1.211880985256644	0.01706430576326065	-6.578199048090755e-09	1.713207179324634e-07	2.924057123369455e-06	1.369977209096999e-06	-4.669064994094075e-07	-6.541845472095192e-08	2.061951606090877e-06
